<svg width="28" height="25" viewBox="0 0 28 25" fill="none" xmlns="http://www.w3.org/2000/svg">
<path d="M19.5562 16.8408L21.1118 15.2783C21.3549 15.0342 21.7778 15.2051 21.7778 15.5566V22.6562C21.7778 23.9502 20.7326 25 19.4444 25H2.33333C1.04514 25 0 23.9502 0 22.6562V5.46875C0 4.1748 1.04514 3.125 2.33333 3.125H15.6285C15.9736 3.125 16.1486 3.54492 15.9056 3.79395L14.35 5.35644C14.2771 5.42969 14.1799 5.46875 14.0729 5.46875H2.33333V22.6562H19.4444V17.1143C19.4444 17.0117 19.4833 16.9141 19.5562 16.8408ZM27.1688 6.9873L14.4035 19.8096L10.009 20.2979C8.73542 20.4395 7.65139 19.3604 7.79236 18.0713L8.27847 13.6572L21.0438 0.834961C22.1569 -0.283203 23.9556 -0.283203 25.0639 0.834961L27.1639 2.94434C28.2771 4.0625 28.2771 5.87402 27.1688 6.9873ZM22.366 8.49609L19.5417 5.65918L10.5097 14.7363L10.1549 17.9248L13.3292 17.5684L22.366 8.49609ZM25.516 4.60449L23.416 2.49512C23.2167 2.29492 22.891 2.29492 22.6965 2.49512L21.1944 4.00391L24.0188 6.84082L25.5208 5.33203C25.7153 5.12695 25.7153 4.80469 25.516 4.60449Z" fill="#D9D9D9"/>
</svg>
