<svg width="20" height="18" viewBox="0 0 20 18" fill="none" xmlns="http://www.w3.org/2000/svg">
<path id="Vector" d="M18.8813 14.6502L11.5659 1.17606C11.3722 0.820214 11.0862 0.52317 10.7379 0.316202C10.3896 0.109234 9.99196 0 9.58682 0C9.18168 0 8.78404 0.109234 8.43575 0.316202C8.08747 0.52317 7.80143 0.820214 7.60776 1.17606L0.284858 14.6502C0.0931895 14.9942 -0.00496002 15.3825 0.000192932 15.7763C0.00534589 16.1701 0.113621 16.5556 0.314226 16.8945C0.514831 17.2334 0.800759 17.5138 1.14351 17.7078C1.48626 17.9018 1.87386 18.0025 2.26767 18H16.8985C17.289 18.0003 17.673 17.8991 18.0127 17.7063C18.3524 17.5135 18.6361 17.2358 18.8361 16.9002C19.036 16.5647 19.1453 16.183 19.1533 15.7925C19.1612 15.4019 19.0674 15.0161 18.8813 14.6727V14.6502ZM8.46397 5.03654C8.46397 4.73775 8.58267 4.45119 8.79395 4.23992C9.00523 4.02864 9.29178 3.90994 9.59057 3.90994C9.88937 3.90994 10.1759 4.02864 10.3872 4.23992C10.5985 4.45119 10.7172 4.73775 10.7172 5.03654V10.2114C10.7172 10.5102 10.5985 10.7967 10.3872 11.008C10.1759 11.2193 9.88937 11.338 9.59057 11.338C9.29178 11.338 9.00523 11.2193 8.79395 11.008C8.58267 10.7967 8.46397 10.5102 8.46397 10.2114V5.03654ZM9.62062 15.1835C9.36512 15.1835 9.11535 15.1077 8.90291 14.9657C8.69047 14.8238 8.52489 14.622 8.42712 14.386C8.32934 14.1499 8.30376 13.8902 8.3536 13.6396C8.40345 13.389 8.52649 13.1588 8.70715 12.9782C8.88782 12.7975 9.118 12.6745 9.36859 12.6246C9.61918 12.5748 9.87893 12.6003 10.115 12.6981C10.351 12.7959 10.5528 12.9615 10.6947 13.1739C10.8367 13.3864 10.9125 13.6361 10.9125 13.8916C10.9125 14.2342 10.7763 14.5628 10.5341 14.8051C10.2918 15.0473 9.96323 15.1835 9.62062 15.1835Z" fill="#B33233"/>
</svg>
