<svg width="40" height="40" viewBox="0 0 40 40" fill="none" xmlns="http://www.w3.org/2000/svg">
<rect x="0.5" y="0.5" width="39" height="39" rx="3.5" fill="#62D84E" stroke="#81B5A1"/>
<path d="M29.0002 29L24.6572 24.657M24.6572 24.657C25.4001 23.9141 25.9894 23.0322 26.3914 22.0615C26.7935 21.0909 27.0004 20.0506 27.0004 19C27.0004 17.9494 26.7935 16.9091 26.3914 15.9385C25.9894 14.9678 25.4001 14.0859 24.6572 13.343C23.9143 12.6001 23.0324 12.0108 22.0618 11.6088C21.0911 11.2067 20.0508 10.9998 19.0002 10.9998C17.9496 10.9998 16.9093 11.2067 15.9387 11.6088C14.968 12.0108 14.0861 12.6001 13.3432 13.343C11.8429 14.8433 11 16.8782 11 19C11 21.1218 11.8429 23.1567 13.3432 24.657C14.8435 26.1573 16.8784 27.0002 19.0002 27.0002C21.122 27.0002 23.1569 26.1573 24.6572 24.657Z" stroke="white" stroke-width="2.5" stroke-linecap="round" stroke-linejoin="round"/>
</svg>
