<svg width="18" height="18" viewBox="0 0 18 18" fill="none" xmlns="http://www.w3.org/2000/svg">
<path id="Vector" d="M9 0C6.61305 0 4.32387 0.948211 2.63604 2.63604C0.948212 4.32387 0 6.61305 0 9C0 11.3869 0.948212 13.6761 2.63604 15.364C4.32387 17.0518 6.61305 18 9 18C11.3869 18 13.6761 17.0518 15.364 15.364C17.0518 13.6761 18 11.3869 18 9C18 6.61305 17.0518 4.32387 15.364 2.63604C13.6761 0.948211 11.3869 0 9 0ZM9 3.85714C9.16323 3.857 9.3247 3.89091 9.47409 3.9567C9.62348 4.02248 9.75751 4.11871 9.86762 4.23921C9.97772 4.35972 10.0615 4.50187 10.1135 4.65658C10.1656 4.81129 10.1848 4.97516 10.17 5.13771L9.70071 10.2883C9.68252 10.4614 9.60085 10.6217 9.47146 10.7383C9.34207 10.8548 9.17412 10.9192 9 10.9192C8.82588 10.9192 8.65793 10.8548 8.52854 10.7383C8.39915 10.6217 8.31748 10.4614 8.29929 10.2883L7.83129 5.13771C7.81646 4.97526 7.83565 4.81151 7.88764 4.65689C7.93963 4.50227 8.02327 4.36018 8.13324 4.23969C8.2432 4.1192 8.37707 4.02295 8.52631 3.95709C8.67555 3.89122 8.83687 3.85718 9 3.85714ZM9 14.1429C8.72721 14.1429 8.46558 14.0345 8.27269 13.8416C8.0798 13.6487 7.97143 13.3871 7.97143 13.1143C7.97143 12.8415 8.0798 12.5799 8.27269 12.387C8.46558 12.1941 8.72721 12.0857 9 12.0857C9.27279 12.0857 9.53442 12.1941 9.72731 12.387C9.9202 12.5799 10.0286 12.8415 10.0286 13.1143C10.0286 13.3871 9.9202 13.6487 9.72731 13.8416C9.53442 14.0345 9.27279 14.1429 9 14.1429Z" fill="#B33233"/>
</svg>
